<svg width="138" height="209" viewBox="0 0 138 209" fill="none" xmlns="http://www.w3.org/2000/svg">
<path d="M136.84 199.855H108.808C108.218 199.855 107.74 199.377 107.74 198.787V1.06786C107.74 0.477762 108.218 0 108.808 0H136.84C137.43 0 137.908 0.477762 137.908 1.06786V198.788C137.906 199.377 137.428 199.855 136.84 199.855Z" fill="white"/>
<path d="M91.8559 168.017C92.0083 168.315 92.1503 168.625 92.2446 168.947C92.3905 169.45 92.5454 169.949 92.5545 170.491C92.5674 171.285 92.406 172.046 92.2317 172.809C92.2084 172.908 92.1736 173.007 92.1271 173.098C91.4027 174.52 90.3387 175.631 89.0191 176.514C88.296 176.999 87.5496 177.433 86.7504 177.779C86.2933 177.976 85.8516 178.211 85.3894 178.393C85.0369 178.531 84.6624 178.617 84.2957 178.72C83.9871 178.806 83.6746 178.88 83.3673 178.97C82.989 179.081 82.6171 179.213 82.2387 179.32C81.9301 179.408 81.6151 179.474 81.3026 179.55C80.7641 179.681 80.2283 179.819 79.6885 179.939C79.2753 180.031 78.8557 180.093 78.4412 180.18C77.9983 180.273 77.5593 180.38 77.119 180.48C76.9769 180.512 76.8323 180.538 76.689 180.566C76.4888 180.606 76.2887 180.649 76.0886 180.685C75.9452 180.712 75.7993 180.729 75.6547 180.756C75.4817 180.787 75.3099 180.822 75.1382 180.857C74.9949 180.885 74.8515 180.919 74.7082 180.946C74.4926 180.986 74.2769 181.024 74.0613 181.062C73.9309 181.085 73.8018 181.109 73.6713 181.131C73.4273 181.171 73.182 181.208 72.9379 181.246C72.8075 181.265 72.6771 181.282 72.5467 181.301C72.2574 181.342 71.9682 181.385 71.679 181.425C71.5628 181.441 71.4452 181.45 71.329 181.464C71.0088 181.501 70.6899 181.539 70.3696 181.576C70.3554 181.577 70.3412 181.585 70.327 181.585C69.6388 181.627 68.9493 181.674 68.261 181.705C67.7755 181.727 67.2887 181.731 66.8032 181.735C66.4946 181.738 66.1821 181.749 65.8774 181.713C64.9671 181.607 64.0593 181.483 63.1413 181.629C62.9837 181.654 62.8159 181.637 62.6558 181.617C60.1353 181.308 57.6134 180.995 55.0929 180.679C54.0961 180.554 53.1006 180.419 52.1489 180.072C52.0107 180.022 51.8635 179.994 51.7176 179.97C50.8874 179.83 50.0558 179.705 49.2733 179.368C49.1132 179.3 48.9311 179.271 48.7568 179.249C48.3113 179.195 47.8878 179.08 47.4927 178.867C47.4798 178.861 47.4656 178.853 47.4514 178.85C46.6624 178.719 45.9303 178.397 45.1826 178.139C44.5499 177.919 43.894 177.744 43.3026 177.413C43.2639 177.391 43.2264 177.365 43.1864 177.35C42.666 177.152 42.1456 176.957 41.6266 176.757C41.5181 176.715 41.4135 176.658 41.3128 176.6C41.2237 176.549 41.1462 176.473 41.0545 176.432C40.6271 176.242 40.1868 176.079 39.7685 175.873C39.3901 175.686 39.0337 175.456 38.667 175.244C38.6038 175.208 38.5444 175.15 38.4759 175.137C37.7089 174.986 37.031 174.522 36.2279 174.5C36.1414 174.498 36.0484 174.478 35.9696 174.442C35.0709 174.021 34.0883 173.963 33.1341 173.773C32.0288 173.552 30.9105 173.485 29.7923 173.396C29.5199 173.374 29.2397 173.448 28.9633 173.477C28.8174 173.493 28.6715 173.506 28.5269 173.529C28.3126 173.563 28.0982 173.603 27.8839 173.641C27.7547 173.665 27.6243 173.687 27.4952 173.715C27.3248 173.751 27.1543 173.79 26.9839 173.831C26.8986 173.852 26.816 173.886 26.7308 173.906C26.2065 174.03 25.6823 174.161 25.1555 174.27C24.6971 174.366 24.2335 174.436 23.7725 174.518C23.6279 174.544 23.4859 174.579 23.3413 174.605C23.1553 174.638 22.9681 174.669 22.7796 174.698C22.737 174.704 22.6905 174.693 22.6466 174.698C22.0371 174.783 21.4289 174.872 20.8195 174.955C20.631 174.981 20.4398 174.992 20.2487 174.999C20.1958 175 17.2686 175.062 13.5278 175.141C25.876 192.017 45.8283 202.979 68.3424 202.979C105.828 202.979 136.218 172.589 136.218 135.103C136.218 97.617 105.828 67.2275 68.3424 67.2275C31.2488 67.2275 1.10606 96.983 0.478516 133.928C6.65066 133.826 20.1584 133.807 20.3185 133.764C21.0235 133.576 21.7298 133.386 22.4193 133.149C23.3451 132.83 24.2813 132.522 25.1671 132.111C26.3137 131.581 27.4177 130.963 28.4869 130.283C30.3217 129.114 32.0055 127.762 33.5886 126.271C34.353 125.55 35.0412 124.768 35.692 123.954C36.193 123.329 36.5933 122.624 37.0349 121.954C37.3719 121.443 37.7167 120.934 38.0356 120.411C38.2396 120.074 38.3997 119.71 38.5844 119.361C38.7213 119.103 38.8633 118.849 39.0053 118.593C39.2184 118.21 39.4431 117.834 39.6445 117.445C39.8524 117.044 40.0383 116.631 40.2346 116.224C40.2979 116.092 40.365 115.963 40.4309 115.831C40.5019 115.688 40.5729 115.543 40.6439 115.399C40.7201 115.241 40.7963 115.084 40.8725 114.926C40.9357 114.794 41.0016 114.664 41.0649 114.532C41.1527 114.349 41.2392 114.164 41.3283 113.98C41.3412 113.954 41.367 113.933 41.3774 113.906C41.5685 113.448 41.757 112.989 41.9481 112.531C42.0101 112.382 42.0772 112.235 42.1469 112.09C42.2102 111.959 42.2851 111.831 42.3484 111.698C42.4672 111.447 42.5795 111.194 42.6957 110.943C42.7138 110.903 42.7435 110.865 42.7538 110.824C42.8959 110.226 43.2535 109.74 43.5634 109.227C43.8888 108.689 44.1703 108.124 44.5034 107.592C45.1039 106.636 45.9212 105.904 46.9271 105.392C47.3971 105.151 47.8736 104.924 48.3565 104.712C48.6496 104.585 48.9595 104.495 49.2643 104.393C49.6232 104.273 49.9835 104.156 50.3438 104.041C50.6511 103.943 50.9532 103.823 51.267 103.762C51.8958 103.642 52.4601 103.367 53.0282 103.093C53.8082 102.719 54.6049 102.379 55.3744 101.985C55.9762 101.678 56.5469 101.31 57.1357 100.975C58.7175 100.075 60.1753 98.9999 61.5866 97.8558C62.5731 97.0565 63.5093 96.2017 64.3757 95.2746C65.0071 94.5993 65.6398 93.924 66.1744 93.1647C66.749 92.3487 67.3455 91.5494 67.9098 90.7269C68.1229 90.4157 68.2714 90.0593 68.4534 89.7262C68.5025 89.6358 68.5684 89.557 68.6213 89.4679C68.6884 89.3556 68.7788 89.2458 68.8072 89.1231C69.0552 88.0462 69.3005 86.9668 69.5265 85.886C69.6143 85.4676 69.6646 85.0402 69.7124 84.6154C69.7873 83.9362 69.9125 83.2725 70.1953 82.645C70.2315 82.5649 70.2702 82.4771 70.2741 82.3919C70.3064 81.7798 70.6163 81.2569 70.8861 80.7481C71.422 79.7358 72.1231 78.8513 73.2685 78.4368C73.8922 78.2109 74.5081 77.9965 75.1898 78.0727C75.452 78.1024 75.7206 78.0662 75.9865 78.0753C76.2074 78.083 76.4307 78.0933 76.6464 78.136C77.2985 78.2625 77.9479 78.3968 78.5961 78.544C78.7782 78.5853 78.9512 78.6757 79.1243 78.7519C79.2314 78.7997 79.3257 78.8771 79.4329 78.921C80.5563 79.3833 81.4304 80.1387 82.0696 81.1665C82.4441 81.7682 82.7423 82.4022 82.8805 83.1072C82.9735 83.5798 83.1065 84.0447 83.2123 84.5147C83.2382 84.627 83.224 84.7497 83.2253 84.8672C83.2265 85.0596 83.1891 85.2598 83.233 85.4405C83.3893 86.0719 83.3105 86.7008 83.264 87.3335C83.242 87.6421 83.2227 87.9559 83.2472 88.2632C83.3363 89.393 83.1542 90.5035 83.0148 91.6152C82.936 92.2441 82.8663 92.8781 82.5344 93.4449C82.4621 93.5676 82.4376 93.7251 82.4169 93.8698C82.3653 94.2248 82.2775 94.5644 82.0541 94.8563C82.036 94.8795 82.0244 94.9079 82.0141 94.935C81.8204 95.4412 81.6448 95.9551 81.4279 96.451C81.229 96.9042 80.9862 97.3393 80.7603 97.7809C80.5743 98.1451 80.3871 98.5092 80.1934 98.8708C80.0553 99.1277 79.9171 99.3847 79.7621 99.6313C79.4419 100.14 79.1165 100.646 78.7834 101.146C78.5071 101.562 78.2243 101.972 77.9273 102.375C77.4663 103.001 77.0131 103.634 76.5185 104.232C75.7425 105.172 74.9381 106.089 74.1401 107.011C73.5448 107.699 72.9302 108.372 72.3452 109.069C71.8546 109.653 71.3988 110.265 70.9197 110.859C70.4045 111.499 69.8777 112.131 69.3612 112.77C68.864 113.387 68.3785 114.013 67.8814 114.63C67.4127 115.213 66.9362 115.79 66.4623 116.368C66.3139 116.55 66.3552 116.696 66.5837 116.761C66.696 116.792 66.8174 116.794 66.9336 116.813C68.4212 117.048 69.9074 117.285 71.3949 117.52C72.0805 117.629 72.7675 117.732 73.4518 117.844C74.734 118.055 76.0111 118.295 77.2972 118.476C78.6129 118.66 79.9365 118.786 81.2548 118.939C81.6951 118.991 82.1367 119.034 82.5732 119.107C84 119.347 85.423 119.606 86.8498 119.843C87.4631 119.945 88.0726 120.042 88.6524 120.28C88.8693 120.369 89.1056 120.419 89.3367 120.459C89.861 120.552 90.3826 120.637 90.8539 120.915C90.9882 120.995 91.1664 120.997 91.3201 121.049C91.5964 121.142 91.8701 121.243 92.1439 121.344C92.1852 121.359 92.2213 121.387 92.2627 121.403C92.8399 121.613 93.4248 121.806 93.9916 122.04C94.3287 122.178 94.654 122.36 94.9575 122.561C95.4572 122.894 95.9479 123.244 96.4205 123.615C96.9847 124.059 97.54 124.515 98.0707 124.998C98.7111 125.581 99.3335 126.188 99.943 126.806C100.698 127.57 101.265 128.475 101.69 129.45C102.117 130.431 102.301 131.473 102.041 132.549C102.017 132.65 101.991 132.75 101.952 132.845C101.427 134.129 100.511 135.081 99.389 135.862C98.6001 136.411 97.7685 136.875 96.8698 137.214C96.4618 137.368 96.0525 137.518 95.6419 137.661C95.4611 137.724 96.0396 137.847 96.179 138.034C96.2281 138.1 96.2939 138.175 96.352 138.256C97.0002 139.158 97.1694 139.835 97.744 140.785C98.0836 141.345 98.3393 141.962 98.5885 142.57C98.7538 142.973 98.8441 143.408 98.9668 143.829C98.9836 143.886 99.0004 143.945 98.9978 144.002C98.9526 144.867 99.0766 145.748 98.7628 146.591C98.6866 146.797 98.6827 147.028 98.6182 147.238C98.5549 147.446 98.4594 147.646 98.3715 147.846C98.3302 147.941 98.2618 148.023 98.2282 148.119C97.9971 148.78 97.5761 149.325 97.1642 149.875C96.4708 150.801 95.6419 151.592 94.7186 152.284C94.5417 152.417 94.5353 152.534 94.6063 152.734C94.8258 153.355 95.0169 153.986 95.2106 154.616C95.3384 155.035 95.452 155.458 95.5657 155.882C95.5915 155.98 95.5915 156.086 95.598 156.189C95.6044 156.307 95.585 156.429 95.6096 156.543C95.8678 157.784 95.709 159.003 95.4353 160.219C95.0647 161.864 94.0485 163.04 92.7146 163.986C92.1477 164.387 91.5292 164.697 90.8927 164.967" fill="white"/>
<path d="M115.059 188.714C85.558 217.39 32.3588 211.471 9.87305 176.846" stroke="white" stroke-width="2.1029" stroke-miterlimit="10"/>
</svg>
