<svg width="148" height="63" viewBox="0 0 148 63" fill="none" xmlns="http://www.w3.org/2000/svg">
<path d="M75.1946 36.5075C75.1946 46.6625 67.0412 54.9044 56.997 54.9044C46.9555 54.9044 38.8027 46.6618 38.8027 36.5075C38.8027 26.3538 46.9561 18.1099 56.997 18.1099C67.0432 18.1099 75.1946 26.3538 75.1946 36.5075ZM64.488 36.5075C64.488 31.7408 61.0993 27.8668 56.9236 27.8668C52.7498 27.8668 49.3631 31.7395 49.3631 36.5075C49.3631 41.2774 52.7498 45.1481 56.9236 45.1481C61.0986 45.1475 64.488 41.2774 64.488 36.5075Z" fill="white"/>
<path d="M103.173 36.6657C103.173 46.8207 95.0197 55.0626 84.9755 55.0626C74.934 55.0626 66.7812 46.82 66.7812 36.6657C66.7812 26.512 74.9346 18.2681 84.9755 18.2681C95.0217 18.2687 103.173 26.512 103.173 36.6657ZM92.4665 36.6657C92.4665 31.899 89.0778 28.025 84.9021 28.025C80.7283 28.025 77.3416 31.8977 77.3416 36.6657C77.3416 41.4356 80.7283 45.3064 84.9021 45.3064C89.0772 45.3064 92.4665 41.4362 92.4665 36.6657Z" fill="white"/>
<path d="M138.243 28.1284V41.1291C138.389 43.6219 139.85 44.3447 140.598 44.3447C142.891 44.4181 143.19 42.3299 143.289 41.2504C145.68 41.8885 147.598 43.9905 146.889 47.3759C145.414 54.4111 139.141 54.6689 137.906 54.6689C135.031 54.6689 132.893 53.9016 131.175 52.0049C129.456 50.1082 128.594 47.3878 128.594 43.8449V28.1238H127.102C124.664 28.1238 122.688 26.1471 122.688 23.7093C122.688 21.2709 124.665 19.2936 127.104 19.2949L128.511 19.2955C132.515 19.2168 131.316 10.4745 138.301 10.4673V19.2929H140.777C143.217 19.2929 145.195 21.2709 145.195 23.7107C145.195 26.1504 143.217 28.1284 140.777 28.1284H138.243Z" fill="white"/>
<path d="M111.813 48.2946C109.8 43.9615 102.618 28.4981 102.319 27.62C102.062 26.8651 101.798 26.0532 101.579 25.2242C100.801 22.2736 103.033 19.3853 106.084 19.3853H106.085C108.396 19.3853 110.349 21.0832 110.69 23.3682C110.879 24.6254 111.192 25.6538 111.192 25.6538L116.663 37.4497L122.134 25.6551C122.134 25.6551 122.448 24.6267 122.636 23.3695C122.978 21.0845 124.931 19.3872 127.241 19.3872C130.292 19.3872 132.525 22.2749 131.747 25.2255C131.528 26.0545 131.263 26.8664 131.007 27.6206C130.772 28.3106 126.236 38.0413 123.315 44.2973L118.477 55.7299C117.175 58.7973 115.38 60.9432 113.196 61.9551C111.008 62.9684 108.878 62.8497 106.384 61.7944C105.317 61.3419 99.9766 58.8189 101.282 52.1844C101.907 48.9938 104.339 47.8762 106.646 48.1969C106.336 49.1722 105.828 51.0892 107.841 51.8663C108.488 52.1411 110.064 52.071 111.105 49.9657L111.813 48.2946Z" fill="white"/>
<path d="M35.7398 52.7039H28.8686C28.5688 52.7039 28.3262 52.4612 28.3262 52.1615V0.54238C28.3262 0.242662 28.5688 0 28.8686 0H35.7391C36.0388 0 36.2815 0.242662 36.2815 0.54238V52.1615C36.2822 52.4612 36.0388 52.7039 35.7398 52.7039Z" fill="white"/>
<path d="M24.1385 44.3075C24.1785 44.3862 24.2166 44.4682 24.2408 44.5528C24.2795 44.6853 24.3202 44.8171 24.3222 44.9601C24.3254 45.1693 24.2828 45.37 24.2369 45.5713C24.231 45.5976 24.2218 45.6238 24.2094 45.6481C24.0185 46.0226 23.7378 46.3164 23.3896 46.5492C23.1987 46.6764 23.002 46.7912 22.7914 46.8824C22.6708 46.9348 22.5547 46.9965 22.4327 47.0444C22.3396 47.0811 22.2412 47.1034 22.1441 47.1303C22.0628 47.1532 21.9802 47.1723 21.8988 47.1965C21.7991 47.226 21.7008 47.2601 21.6011 47.289C21.5198 47.3119 21.4365 47.3296 21.3538 47.3493C21.2122 47.3834 21.0705 47.4202 20.9282 47.4516C20.8193 47.4759 20.7085 47.4923 20.599 47.5153C20.4822 47.5395 20.3668 47.5684 20.2501 47.5946C20.2127 47.6031 20.1746 47.6097 20.1366 47.6176C20.0841 47.6281 20.031 47.6392 19.9779 47.649C19.9398 47.6563 19.9018 47.6609 19.8638 47.6674C19.8185 47.6759 19.7733 47.6851 19.7274 47.6943C19.6893 47.7022 19.6519 47.7107 19.6139 47.7179C19.5568 47.7284 19.5004 47.7382 19.4434 47.7487C19.4093 47.7546 19.3752 47.7612 19.3404 47.7664C19.2761 47.7769 19.2112 47.7868 19.1469 47.7966C19.1128 47.8019 19.0781 47.8064 19.0433 47.811C18.9672 47.8222 18.8912 47.8333 18.8144 47.8438C18.7836 47.8478 18.7528 47.8504 18.722 47.8537C18.6373 47.8635 18.5534 47.8733 18.4688 47.8832C18.4649 47.8838 18.4609 47.8858 18.4577 47.8858C18.276 47.8963 18.0943 47.9094 17.9126 47.9173C17.7848 47.9232 17.6562 47.9245 17.5283 47.9252C17.447 47.9258 17.3644 47.9291 17.2844 47.9193C17.0443 47.8911 16.8049 47.8589 16.5629 47.897C16.5216 47.9035 16.477 47.8989 16.435 47.8937C15.77 47.8117 15.1057 47.7297 14.4406 47.6464C14.1776 47.6136 13.9153 47.5782 13.6641 47.4864C13.628 47.4733 13.5887 47.4661 13.5507 47.4595C13.3316 47.4228 13.1126 47.39 12.906 47.3008C12.864 47.2824 12.8161 47.2752 12.7696 47.2693C12.6522 47.2549 12.5407 47.2247 12.4364 47.1683C12.4331 47.1663 12.4292 47.1644 12.4259 47.1637C12.218 47.129 12.0245 47.0444 11.8278 46.9762C11.6612 46.9184 11.488 46.8719 11.332 46.7846C11.3215 46.7787 11.3123 46.7722 11.3011 46.7683C11.1641 46.7158 11.0263 46.6646 10.8899 46.6122C10.8611 46.601 10.8335 46.5859 10.8073 46.5708C10.7837 46.5577 10.7633 46.5374 10.7391 46.5269C10.6263 46.4771 10.5102 46.4338 10.4 46.3793C10.3003 46.3302 10.2059 46.2692 10.1095 46.2134C10.0924 46.2036 10.0773 46.1885 10.059 46.1852C9.85698 46.1452 9.67793 46.0232 9.46609 46.0173C9.44314 46.0167 9.41887 46.0114 9.39789 46.0022C9.16047 45.8914 8.90142 45.8763 8.65023 45.8258C8.35904 45.7674 8.06391 45.7497 7.76878 45.7268C7.69664 45.7209 7.62319 45.7406 7.54973 45.7484C7.51104 45.7524 7.473 45.7563 7.43496 45.7622C7.37856 45.7714 7.32216 45.7819 7.2651 45.7917C7.231 45.7976 7.19689 45.8035 7.16279 45.8107C7.11754 45.8206 7.07294 45.8304 7.02834 45.8416C7.00604 45.8468 6.9844 45.856 6.96145 45.8612C6.82306 45.894 6.68534 45.9281 6.54564 45.957C6.42497 45.9819 6.30233 46.0003 6.181 46.0226C6.14296 46.0291 6.10558 46.0383 6.06754 46.0455C6.01835 46.0547 5.96916 46.0626 5.91932 46.0698C5.90817 46.0717 5.89571 46.0685 5.88456 46.0698C5.72388 46.0921 5.5632 46.1157 5.40252 46.1373C5.35267 46.1439 5.30217 46.1472 5.25233 46.1491C5.23856 46.1498 4.46598 46.1662 3.48025 46.1865C6.73649 50.637 11.9983 53.5273 17.9356 53.5273C27.8211 53.5273 35.8348 45.5136 35.8348 35.6282C35.8348 25.7427 27.8211 17.729 17.9356 17.729C8.15376 17.729 0.204334 25.5761 0.0390625 35.3186C1.66686 35.2917 5.22872 35.2865 5.27069 35.2753C5.4563 35.2255 5.64255 35.1756 5.82422 35.1133C6.06819 35.0294 6.31544 34.9474 6.54892 34.8392C6.85126 34.6995 7.14246 34.5369 7.42447 34.3572C7.90848 34.0489 8.35248 33.6921 8.77025 33.2993C8.97225 33.1091 9.15326 32.9025 9.32509 32.6887C9.45691 32.5241 9.5625 32.3378 9.67924 32.1614C9.76844 32.0263 9.85894 31.8925 9.94289 31.7548C9.99667 31.6662 10.0393 31.5698 10.0878 31.478C10.1239 31.4098 10.1613 31.3429 10.1987 31.2754C10.2551 31.1744 10.3141 31.0753 10.3672 30.9724C10.4223 30.8668 10.4708 30.7572 10.5227 30.6503C10.5397 30.6156 10.5574 30.5815 10.5745 30.5467C10.5935 30.5087 10.6118 30.4707 10.6309 30.4326C10.6512 30.3913 10.6709 30.3493 10.6912 30.308C10.7083 30.2732 10.7253 30.2391 10.7417 30.2044C10.7647 30.1559 10.7876 30.1073 10.8112 30.0588C10.8145 30.0516 10.8211 30.0463 10.8243 30.0398C10.8748 29.9191 10.9247 29.7978 10.9752 29.6771C10.9916 29.6377 11.0093 29.599 11.0276 29.561C11.0447 29.5262 11.0644 29.4928 11.0808 29.4574C11.1122 29.3911 11.1418 29.3249 11.1726 29.258C11.1772 29.2475 11.185 29.2377 11.1877 29.2265C11.2251 29.0691 11.3195 28.9406 11.4015 28.8055C11.4874 28.6638 11.5615 28.5149 11.6494 28.3746C11.8081 28.1227 12.0232 27.9293 12.2882 27.7942C12.4121 27.7312 12.5374 27.6709 12.6653 27.6151C12.7427 27.581 12.8246 27.5581 12.9047 27.5312C12.9991 27.4997 13.0942 27.4689 13.1893 27.4387C13.27 27.4131 13.35 27.381 13.4326 27.3653C13.5985 27.3338 13.7474 27.261 13.8969 27.1888C14.1022 27.0898 14.3127 27.0006 14.5154 26.897C14.6741 26.8157 14.825 26.7186 14.9797 26.6307C15.3968 26.3933 15.7812 26.11 16.1537 25.8083C16.4141 25.5971 16.6607 25.3722 16.8895 25.1275C17.0561 24.9491 17.2227 24.7714 17.3637 24.5707C17.5152 24.3556 17.6726 24.1451 17.8215 23.928C17.8779 23.846 17.9166 23.7522 17.9645 23.6637C17.9776 23.6401 17.9946 23.6191 18.0084 23.5955C18.0261 23.566 18.0497 23.5371 18.0576 23.5043C18.1232 23.2203 18.1874 22.9357 18.2471 22.6504C18.2701 22.5402 18.2839 22.4274 18.2963 22.3153C18.316 22.1362 18.3488 21.9611 18.4235 21.7959C18.4334 21.7749 18.4432 21.7519 18.4445 21.729C18.4531 21.5676 18.535 21.4292 18.6059 21.2955C18.7469 21.0285 18.9318 20.7951 19.2342 20.6855C19.3988 20.6259 19.5608 20.5695 19.7405 20.5898C19.8093 20.5977 19.8808 20.5878 19.9503 20.5904C20.0087 20.5924 20.0671 20.5957 20.1241 20.6062C20.296 20.6396 20.4678 20.675 20.6383 20.7137C20.6862 20.7249 20.7321 20.7485 20.7774 20.7688C20.8056 20.7813 20.8305 20.8016 20.8587 20.8134C21.1551 20.9354 21.3853 21.1348 21.5539 21.4056C21.6522 21.5644 21.7316 21.7316 21.7677 21.9172C21.7919 22.0418 21.8274 22.1644 21.8549 22.2884C21.8615 22.3179 21.8582 22.3501 21.8582 22.3815C21.8588 22.432 21.8483 22.4851 21.8601 22.533C21.9015 22.6996 21.8805 22.8655 21.868 23.0321C21.8621 23.1135 21.8569 23.1961 21.8634 23.2774C21.887 23.5752 21.8392 23.8683 21.8024 24.1615C21.7814 24.3274 21.7631 24.4946 21.6759 24.6442C21.6568 24.6763 21.6503 24.7183 21.645 24.7563C21.6313 24.8501 21.6083 24.9393 21.5493 25.016C21.5447 25.0219 21.5414 25.0298 21.5388 25.037C21.4876 25.1702 21.4417 25.3059 21.384 25.4371C21.3315 25.5564 21.2673 25.6712 21.2076 25.788C21.1584 25.8844 21.1092 25.9801 21.0581 26.0752C21.022 26.1428 20.9853 26.211 20.9446 26.2759C20.86 26.4104 20.7747 26.5435 20.6868 26.6753C20.614 26.7848 20.5393 26.8937 20.4612 26.9993C20.3399 27.1646 20.2199 27.3311 20.09 27.4892C19.8854 27.7371 19.6729 27.9785 19.4631 28.2218C19.3063 28.4034 19.1437 28.5805 18.9895 28.7642C18.8603 28.9183 18.7397 29.0796 18.6137 29.2357C18.478 29.4043 18.3389 29.5708 18.2032 29.74C18.072 29.9027 17.9441 30.068 17.813 30.2306C17.689 30.3841 17.5637 30.5362 17.4391 30.689C17.3998 30.7369 17.4109 30.7756 17.4713 30.7927C17.5008 30.8012 17.5329 30.8012 17.5637 30.8064C17.9559 30.8687 18.3481 30.931 18.7403 30.9934C18.9213 31.0222 19.1023 31.0491 19.2827 31.0786C19.6205 31.1344 19.9576 31.1973 20.2966 31.2452C20.6436 31.2937 20.9925 31.3272 21.3407 31.3672C21.4568 31.381 21.5735 31.3921 21.6883 31.4118C22.0648 31.4747 22.4399 31.5436 22.8164 31.6059C22.9777 31.6328 23.139 31.6584 23.2918 31.7213C23.3489 31.7449 23.4112 31.7581 23.4722 31.7686C23.6106 31.7928 23.7483 31.8151 23.8723 31.8886C23.9077 31.9096 23.9549 31.9102 23.9949 31.924C24.0677 31.9483 24.1398 31.9751 24.212 32.0014C24.2231 32.0053 24.2323 32.0132 24.2435 32.0171C24.3956 32.0729 24.5497 32.1234 24.6993 32.185C24.7878 32.2217 24.8737 32.2696 24.9537 32.3227C25.0856 32.4106 25.2148 32.5031 25.3394 32.6008C25.4882 32.7176 25.6345 32.8382 25.7748 32.9655C25.9441 33.1196 26.108 33.2796 26.2687 33.4423C26.4681 33.6436 26.6176 33.883 26.7291 34.1394C26.8419 34.3978 26.8898 34.6733 26.8216 34.9566C26.815 34.9828 26.8084 35.0097 26.798 35.0346C26.6596 35.3731 26.4182 35.6242 26.1224 35.8302C25.9145 35.9751 25.6955 36.0971 25.4581 36.1869C25.3505 36.2276 25.243 36.267 25.1341 36.305C25.0862 36.3221 25.239 36.3542 25.2758 36.4034C25.2889 36.4204 25.3059 36.4408 25.3217 36.4617C25.4928 36.6992 25.5374 36.8782 25.6883 37.1287C25.7781 37.2769 25.845 37.4389 25.9113 37.5996C25.9552 37.7059 25.9788 37.8206 26.0109 37.9315C26.0155 37.9466 26.0195 37.9623 26.0188 37.9774C26.007 38.2056 26.0398 38.4378 25.9572 38.6601C25.9368 38.7145 25.9362 38.7755 25.9191 38.8306C25.9021 38.8857 25.8772 38.9382 25.8542 38.9913C25.8437 39.0162 25.8253 39.0379 25.8168 39.0635C25.7558 39.2379 25.645 39.3815 25.5361 39.5265C25.3531 39.7705 25.1347 39.979 24.8914 40.162C24.8449 40.1967 24.8429 40.2276 24.8619 40.2807C24.9196 40.4447 24.9701 40.6112 25.0213 40.7772C25.0547 40.8873 25.0849 40.9995 25.1151 41.111C25.1223 41.1366 25.1223 41.1648 25.1236 41.1916C25.1256 41.2225 25.1203 41.2546 25.1262 41.2848C25.1944 41.612 25.1525 41.9334 25.0803 42.2541C24.9826 42.6883 24.715 42.9978 24.3628 43.2477C24.2133 43.3533 24.05 43.4353 23.8821 43.5061" fill="white"/>
<path d="M30.2563 49.7654C22.4767 57.3272 8.44768 55.7663 2.51758 46.6357" stroke="white" stroke-width="2.1029" stroke-miterlimit="10"/>
</svg>
